<svg version="1.1" 
		 id="Layer_1" 
		 xmlns="http://www.w3.org/2000/svg"
		 xmlns:xlink="http://www.w3.org/1999/xlink" x="0px" y="0px"
		 width="100%" viewBox="0 0 1504 1003" enable-background="new 0 0 1504 1003" xml:space="preserve">
 <path xmlns="http://www.w3.org/2000/svg" fill="none" opacity="1" stroke="#000000" stroke-linecap="round" stroke-linejoin="round" stroke-width="5" d=" M1411.5,192.5   C1412.644043,183.5314 1411.924194,174.6633 1409.451294,166.013931   C1406.840210,156.881256 1402.677246,148.426895 1394.950562,142.565231   C1382.637329,133.224289 1369.855469,135.268661 1356.431030,140.833664   C1341.833862,146.884842 1323.568970,138.882736 1321.590210,122.988770   C1320.068604,110.766876 1331.211548,101.593056 1342.050293,106.386269   C1345.532104,107.926056 1347.386963,110.421837 1348.407227,113.530457   C1349.864746,117.971764 1346.819092,120.834534 1341.5,120.5  "/>
 <path xmlns="http://www.w3.org/2000/svg" fill="none" opacity="1" stroke="#000000" stroke-linecap="round" stroke-linejoin="round" stroke-width="5" d=" M1353,143.5   C1352.333374,145.5 1351.790894,147.552292 1350.975952,149.489868   C1348.849365,154.545181 1349.530273,158.168427 1353.5,161.999969   C1357.695312,166.049316 1361.960205,167.052246 1366.497681,164.994781   C1372.478271,162.282959 1376.801880,154.968994 1370.567017,148.930756   C1368.599731,147.025467 1366.206787,146.955612 1364.583984,147.686493   C1362.182861,148.768036 1360.898560,151.232986 1363,154  "/>
</svg>